<svg xmlns="http://www.w3.org/2000/svg" viewBox="0 0 900 1100">
<defs>
  <linearGradient id="bg" x1="0" x2="1" y1="0" y2="1">
    <stop offset="0%" stop-color="#071b4d"/>
    <stop offset="100%" stop-color="#050a1f"/>
  </linearGradient>
  <radialGradient id="glow" cx="50%" cy="20%" r="65%">
    <stop offset="0%" stop-color="#38bdf8" stop-opacity="0.55"/>
    <stop offset="100%" stop-color="#38bdf8" stop-opacity="0"/>
  </radialGradient>
</defs>
<rect width="900" height="1100" rx="44" fill="url(#bg)"/>
<rect width="900" height="1100" rx="44" fill="url(#glow)"/>
<g opacity="0.22" fill="#fff"><circle cx="85" cy="92" r="2"/><circle cx="142" cy="64" r="2"/><circle cx="310" cy="102" r="1.8"/><circle cx="770" cy="128" r="2.1"/><circle cx="640" cy="88" r="1.7"/><circle cx="720" cy="210" r="1.8"/><circle cx="180" cy="220" r="1.6"/><circle cx="420" cy="170" r="1.4"/></g>
<ellipse cx="450" cy="1010" rx="248" ry="44" fill="#09152d" opacity="0.65"/>
<rect x="175" y="680" width="550" height="230" rx="24" fill="#4b175e" opacity="0.88"/>
<rect x="200" y="700" width="500" height="180" rx="18" fill="none" stroke="#a855f7" opacity="0.45"/>
<path d="M200 735h500" stroke="#38bdf8" opacity="0.22"/>
<path d="M450 420c90 0 164 78 164 175v78H286v-78c0-97 74-175 164-175z" fill="#1d2746"/>
<ellipse cx="450" cy="300" rx="118" ry="135" fill="#f1dccb"/>
<path d="M319 304c7-111 73-188 131-188 81 0 146 74 146 195-24-19-44-25-67-25-38 0-50 25-79 25-42 0-66-16-131-7z" fill="#0f172a"/>
<path d="M395 358c18 8 41 11 55 11s37-3 55-11" stroke="#a05f4f" stroke-width="6" fill="none" stroke-linecap="round"/>
<circle cx="406" cy="298" r="10" fill="#0f172a"/><circle cx="494" cy="298" r="10" fill="#0f172a"/>
<path d="M436 316c9 7 19 11 29 11 9 0 19-4 28-11" stroke="#0f172a" stroke-width="4" fill="none" stroke-linecap="round"/>
<path d="M381 457c31 28 67 43 104 43 40 0 74-15 114-43" stroke="#f1dccb" stroke-width="22" fill="none" stroke-linecap="round"/>
<path d="M600 435c-22 82-72 137-150 165-86-31-136-86-159-165 30 16 62 25 95 25 25 0 46-4 64-13 18 9 40 13 64 13 30 0 58-7 86-25z" fill="#111827"/>
<path d="M332 575c43 20 87 30 118 30 33 0 78-10 118-30l68 116H265z" fill="#1b2540"/>
<g>
  <rect x="318" y="742" width="120" height="180" rx="12" fill="#06112f" stroke="#d4af37"/>
  <rect x="390" y="715" width="120" height="180" rx="12" fill="#06112f" stroke="#d4af37"/>
  <rect x="464" y="742" width="120" height="180" rx="12" fill="#06112f" stroke="#d4af37"/>
  <circle cx="378" cy="830" r="26" fill="none" stroke="#9be8ff"/>
  <path d="M450 780l16 36 39 6-28 27 7 38-34-18-34 18 7-38-28-27 39-6z" fill="none" stroke="#f5e7a2" stroke-width="4"/>
  <circle cx="524" cy="830" r="26" fill="none" stroke="#f5e7a2"/>
</g>
<text x="450" y="1035" fill="#d7eaff" font-size="34" text-anchor="middle" font-family="Poppins, Arial">Reemplaza esta imagen si deseas usando el mismo nombre:</text>
<text x="450" y="1075" fill="#9bd9ff" font-size="34" text-anchor="middle" font-family="Poppins, Arial">assets/img/aurora-foto.svg</text>
</svg>