<svg xmlns="http://www.w3.org/2000/svg" viewBox="0 0 200 320">
<defs><linearGradient id="bg" x1="0" x2="0" y1="0" y2="1"><stop offset="0%" stop-color="#030712"/><stop offset="100%" stop-color="#0b1e4b"/></linearGradient></defs>
<rect width="200" height="320" rx="22" fill="url(#bg)" stroke="#20366f"/>
<rect x="12" y="12" width="176" height="296" rx="16" fill="none" stroke="rgba(255,255,255,.15)"/>
<text x="100" y="38" fill="#f8faff" font-size="18" text-anchor="middle" font-family="Georgia">XIX</text>
<g><circle cx="100" cy="110" r="28" fill="none" stroke="#f5e7a2" stroke-width="4"/><circle cx="100" cy="110" r="12" fill="#f5e7a2" opacity=".85"/><path d="M100 110 L142.0 110.0" stroke="#facc15" stroke-width="3"/><path d="M100 110 L133.98657560149735 134.67615607998346" stroke="#facc15" stroke-width="3"/><path d="M100 110 L113.00415814839502 149.93609734127173" stroke="#facc15" stroke-width="3"/><path d="M100 110 L87.05946268632432 149.9567578018208" stroke="#facc15" stroke-width="3"/><path d="M100 110 L66.05276805468898 134.7302536026474" stroke="#facc15" stroke-width="3"/><path d="M100 110 L58.00005326744334 110.06689142249245" stroke="#facc15" stroke-width="3"/><path d="M100 110 L65.97416695079204 85.37800403485886" stroke="#facc15" stroke-width="3"/><path d="M100 110 L86.93225400251694 70.0846644189822" stroke="#facc15" stroke-width="3"/><path d="M100 110 L112.87688365470216 70.0226830897412" stroke="#facc15" stroke-width="3"/><path d="M100 110 L133.9078021804459 85.21571160408783" stroke="#facc15" stroke-width="3"/><path d="M62 154c23-12 53-12 76 0" stroke="#7dd3fc" stroke-width="3" fill="none"/><circle cx="64" cy="156" r="4" fill="#9be8ff"/><circle cx="136" cy="156" r="4" fill="#9be8ff"/></g>
<text x="100" y="288" fill="#f8faff" font-size="20" text-anchor="middle" font-family="Georgia">The Sun</text>
</svg>