<svg xmlns="http://www.w3.org/2000/svg" viewBox="0 0 128 128" role="img" aria-labelledby="title desc">
<title id="title">Logo Aurora Tarot</title><desc id="desc">Logo minimalista con luna creciente y estrella.</desc>
<defs>
  <linearGradient id="g" x1="0" x2="1" y1="0" y2="1">
    <stop offset="0%" stop-color="#9be8ff"/>
    <stop offset="100%" stop-color="#a855f7"/>
  </linearGradient>
</defs>
<rect width="128" height="128" rx="28" fill="#081237"/>
<circle cx="64" cy="64" r="38" fill="none" stroke="url(#g)" stroke-width="7" opacity="0.35"/>
<path d="M78 30c-19 6-31 23-31 42s12 36 31 42c-8 1-16 0-23-3C40 104 30 89 30 72c0-17 10-32 25-39 7-3 15-4 23-3z" fill="url(#g)"/>
<path d="M84 43l3 8 8 3-8 3-3 8-3-8-8-3 8-3 3-8z" fill="#facc15"/>
<circle cx="84" cy="85" r="3.8" fill="#9be8ff"/>
</svg>