<svg xmlns="http://www.w3.org/2000/svg" viewBox="0 0 128 128">
<defs><linearGradient id="g" x1="0" x2="1" y1="0" y2="1"><stop offset="0%" stop-color="#38bdf8"/><stop offset="100%" stop-color="#a855f7"/></linearGradient></defs>
<rect width="128" height="128" rx="28" fill="#081237"/>
<circle cx="64" cy="64" r="40" fill="none" stroke="url(#g)" stroke-width="6" opacity=".45"/>
<path d="M78 30c-20 6-33 23-33 42s13 36 33 42c-9 1-18-.2-26-4C38 103 29 88 29 72s9-31 23-38c8-4 17-5 26-4z" fill="url(#g)"/>
<path d="M86 42l3 9 9 3-9 3-3 9-3-9-9-3 9-3 3-9z" fill="#facc15"/>
<circle cx="87" cy="86" r="4" fill="#9be8ff"/>
</svg>